<svg width="711" height="706" viewBox="0 0 711 706" fill="none" xmlns="http://www.w3.org/2000/svg">
<path d="M596.75 22.0235L354.75 263.023L112.75 22.0235C100.75 9.02345 87.75 5.02345 71.75 5.02345C50.75 5.02345 33.75 13.0235 21.75 22.0235C8.75 34.0235 4.75 51.0235 4.75 67.0235C4.75 84.0235 8.75 97.0235 25.75 109.023L262.75 355.023L21.75 597.023C-7.25 626.023 -7.25 655.023 21.75 684.023C50.75 713.023 79.75 713.023 108.75 684.023L350.75 442.023L592.75 684.023C604.75 697.023 621.75 701.023 637.75 701.023C654.75 701.023 671.75 697.023 683.75 684.023C696.75 672.023 700.75 659.023 700.75 638.023C700.75 622.023 696.75 605.023 683.75 592.023L442.75 355.023L687.75 113.023C717.75 84.0235 717.75 55.0235 687.75 26.0235C658.75 -7.97655 629.75 -7.97655 596.75 22.0235Z" fill="black"/>
</svg>
