<svg width="40" height="40" viewBox="0 0 40 40" fill="none" xmlns="http://www.w3.org/2000/svg">
<g clip-path="url(#clip0_86_15)">
<path d="M40 20C40 8.9543 31.0457 0 20 0C8.9543 0 0 8.9543 0 20C0 31.0457 8.9543 40 20 40C31.0457 40 40 31.0457 40 20Z" fill="#26D367"/>
<path d="M15.18 18.27L21.684 24.73C22.381 23.923 26.794 19.192 29 25.654C29 25.654 28.768 29 24.006 29C20.639 29 17.155 24.962 14.716 22.654C12.626 20.692 11 18.154 11 15.846C11 11.116 14.252 11 14.252 11C21.684 13.538 15.181 18.27 15.181 18.27" fill="white"/>
</g>
<defs>
<clipPath id="clip0_86_15">
<rect width="40" height="40" fill="white"/>
</clipPath>
</defs>
</svg>
