<svg xmlns="http://www.w3.org/2000/svg" width="153" height="144" viewBox="0 0 153 144" fill="none"><path d="M58.4 137.7L2.7 104.2L11 100.2L1 94.5L10.3 89.5L11.2 91.1L4.8 94.6L15 100.4L6.60001 104.4L58.5 135.5L116.5 101.9L117.4 103.5L58.4 137.7Z" fill="#352C23"></path><path d="M127.3 99.1C133 102.4 142.3 102.4 148.1 99.1C153.9 95.8 153.9 90.4 148.2 87.1C142.5 83.8 133.2 83.8 127.4 87.1C121.6 90.4 121.5 95.8 127.3 99.1Z" fill="#E6DFDA"></path><path d="M121.2 52.9C121.2 52.9 121.2 53 121.3 53C121.4 53.1 121.5 53.1 121.5 53.1C121.5 53.1 121.5 53.4 121.6 53.4C121.7 53.5 122.2 53.3 122.2 53.3C122.2 53.3 122.2 53.4 122.5 53.4C122.8 53.4 123 53.1 123.1 52.8C123.1 52.5 123.7 52.1 123.7 52.1C123.7 52.1 124.1 52 124.2 52.1C124.3 52.2 124.8 52.2 124.8 52.2C124.8 52.2 124.2 52.9 124.1 53.2C124.1 53.2 124.1 53.2 124.1 53.3C124.1 53.3 124.1 53.3 124.1 53.4C124.1 53.5 124.1 53.5 124.1 53.5C124.2 53.6 124.3 53.7 124.4 53.6C124.6 53.5 125.7 52.4 125.7 52.4L127 52.5C127 52.5 127.5 53 127.6 53.1C127.7 53.2 128.1 54 128.1 54.1C128.1 54.2 128.2 54.4 128.4 54.5C128.6 54.7 128.7 54.8 128.8 54.9C129 55 129.1 54.8 129.3 54.7C129.3 54.7 129.3 54.6 129.4 54.6C129.5 54.4 129.3 53.1 129.2 52.8C129.2 52.5 129.4 52 129.4 51.3C129.4 50.6 129.8 49.6 129.8 49.6C129.7 49.5 129.7 49.4 129.6 49.3C128.7 48.1 127.4 48.9 127.3 48.9C127.2 48.9 126.8 49.2 126.7 49.8C126.6 50.3 126.3 50.4 126.2 50.4C126.1 50.4 124.8 50.6 124.8 50.6C124.8 50.6 123.2 51 123.2 51.1C123.1 51.2 123.2 51.3 123.2 51.3C123.2 51.3 121.2 52.7 121.2 52.9Z" fill="#FAC5A8"></path><path d="M124 53.5999C124.1 53.6999 124.2 53.7999 124.3 53.6999C124.5 53.5999 125.6 52.4999 125.6 52.4999L126.9 52.5999C126.9 52.5999 127.4 53.0999 127.5 53.1999C127.6 53.2999 128 54.0999 128 54.1999C128 54.2999 128.1 54.4999 128.3 54.5999C128.2 54.2999 128.2 54.0999 128.2 54.0999C128.2 54.0999 127.7 52.5999 127.6 52.3999C127.5 52.1999 127.2 51.6999 127 51.7999C126.8 51.7999 126.2 51.9999 125.8 52.2999C125.4 52.5999 124.5 53.3999 124.3 53.5999C124.3 53.5999 124.1 53.5999 124 53.5999Z" fill="#FAC5A8"></path><path d="M121.3 53C121.4 53.1 121.5 53.1 121.5 53.1C121.5 52.8 122.1 52.3 122.2 52.2C122 52.2 121.4 52.7 121.3 53Z" fill="#FAC5A8"></path><path d="M121.4 53.1C121.4 53.1 121.4 53.4 121.5 53.4C121.6 53.5 122.1 53.2999 122.1 53.2999C122.1 53.2999 122.1 53.4 122.4 53.4C122.7 53.4 122.9 53.0999 123 52.7999C123 52.4999 123.6 52.1 123.6 52.1C123.6 52.1 124 52 124.1 52.1C124.2 52.2 124.7 52.2 124.7 52.2L125.3 51.2999C125.3 51.2999 124.7 51.2999 124.5 51.2999C124.3 51.2999 123.4 51.8 123.3 52C123.2 52.1 122.8 52.5999 122.8 52.7999C122.7 52.9999 122.6 53.2 122.4 53.2C122.2 53.2 122 53.2 122 53.1L122.2 52.5L123.4 51.2L122.4 52.1C122.4 52.1 121.8 52.8 121.8 52.9C121.8 53 121.8 53.2999 121.7 53.2999C121.7 53.2999 121.4 53.4 121.4 53.1Z" fill="#FAC5A8"></path><path d="M128 38.5C128.1 39.3 129 40.1 129.7 40.7C129.8 40.8 129.9 40.9 130 41C130.3 41.4 131 41.7 131.5 41.8C131.9 41.9 132.3 41.9 132.4 41.7C132.5 41.5 132.9 39.7 133.4 37.6C134.1 34.6 134.9 31.1 134.9 30.9C134.9 30.6 133.5 25.7 132 26.2C130.5 26.6 129.4 32.8 129.1 33.9C128.9 35 128 38.5 128 38.5Z" fill="#FF862A"></path><path d="M126.2 49.6C126.3 49.6 127.8 48.7 128.5 49.1C128.8 49.3 129.1 49.5 129.3 49.6C129.6 49.9 129.7 50.2 129.8 50.5C129.8 51 132 45.2 132 45.2L131.5 41.8C131.5 41.8 131.3 40.9 130.5 40C130.4 39.8 130.2 39.7 130 39.5C129.5 39.1 128.8 38.7 127.9 38.6C127.4 41.6 127.1 45.6 127 46.2C126.9 46.9 126.3 49.5 126.2 49.6Z" fill="#FF862A"></path><path d="M129.8 50.5C129.8 51 132 45.2 132 45.2L131.5 41.9C131.9 42 132.3 42 132.4 41.8C132.5 41.6 132.9 39.8 133.4 37.7C132.5 35.2 130.4 29.7 130.4 30.4C130.3 31.2 130.1 35.7 130.1 35.7L130.4 40V40.6L129.9 39.5L129.5 40.8L129.3 41.5C129.3 41.5 130.7 45.5 130.6 45.8C130.5 46 129.6 48.5 129.2 49.7C129.6 49.9 129.8 50.2 129.8 50.5Z" fill="#B87A56"></path><path d="M129.7 91.6C129.7 91.6 129.1 91.8 129.1 92.1C129.1 92.4 129.4 93.2 129.8 93.4C130.2 93.6 131 93.9 132.2 93.6C133.4 93.3 134.6 92.5 135.2 91.6C135.8 90.7 137.1 90.6 137.2 90.6C137.3 90.6 139.6 89.6 139.9 89.2C140.2 88.8 139.5 87.6 139.5 87.6L134.9 89.5L129.7 91.6Z" fill="#3E362F"></path><path d="M129.3 91.4001C129.3 91.4001 129 93.4 131.2 93.3C133.3 93.2 135.3 91.0001 136 90.5001C136.6 90.0001 139.3 89.1001 139.6 88.5001C139.9 87.9001 139.6 87.3001 139 87.0001C138.4 86.6001 136.5 86.3 136.5 86.3C136.5 86.3 132.2 88.4001 132.1 88.5001C131.9 88.5001 129.2 90.7001 129.3 91.4001Z" fill="#524B45"></path><path d="M136 87.5C136.8 87.7 138.2 87.4 138.9 87C139.1 86.9 139.3 86.8 139.4 86.7C139.7 86.2 140 75.8 140.3 75.2C140.6 74.6 140.1 64.9 140.1 64.9L137.7 60.4L136.2 57.5C136.2 57.5 131.9 52.9 131.9 57.3C132 61.6 132.4 63.5 132.8 65.2C133.2 66.9 133.7 71.9 133.8 72.5C133.9 73.1 135.2 85.9 135.3 86.2C135.3 86.3 135 87.3 136 87.5Z" fill="#355FA1"></path><path d="M138.9 87.1C139.1 87 139.3 86.9 139.4 86.8C139.7 86.3 140 75.9 140.3 75.3C140.6 74.7 140.1 65 140.1 65L137.7 60.5C137.4 60.5 137.2 60.4 137.2 60.4L138 67.8C138 67.8 138.2 71.8 138.8 74.7C139.4 77.6 138.4 81.6 138.5 83C138.6 83.9 138.8 85.9 138.9 87.1Z" fill="#6C8FC2"></path><path d="M138.3 95.6C138.3 95.6 137.8 95.9 137.9 96.4C137.9 96.9 138.2 97.3 138.2 97.3C138.2 97.3 139.2 98.1 141 97.8C142.7 97.5 143.8 96.3 144 95.6C144.2 94.8 145.2 91.9 145.2 91.9C145.2 91.9 145.6 91.3 145.6 91.1C145.6 90.9 145.3 90.1 145.1 90.1C144.9 90.1 140.8 91.8 140.8 91.8L138.3 95.6Z" fill="#3E362F"></path><path d="M138 96.4C138 96.4 138.1 97.7 140.3 97.5C142.5 97.3 143.7 96 144 94.8C144.3 93.6 144.6 92 144.9 91.5C145.2 91 145.1 90.4 145 90C144.8 89.6 144.2 88.1 144.2 88C144.2 88 141.1 88 140.4 90.1C139.7 92.2 138 94.9 138 95.4C138 95.9 138 96.4 138 96.4Z" fill="#524B45"></path><path d="M140 74.4C140.6 77.8 140.5 88.2 140.5 88.2C140.5 88.2 141.4 89.4 142.6 89.2C143.3 89.1 143.9 88.8 144.4 88.5C144.8 88.3 145 88 144.9 87.8C144.8 87.3 146.3 81.6 146.6 78.9C146.9 76.3 146.3 74.1 146.3 73.2C146.3 72.3 147.9 63.5 148.1 61.8C148.3 60.1 147.9 56.5 147.9 56.5C147.9 56.5 147.7 56.5 147.3 56.4C144.7 56.1 134.3 55.1 134.2 57C134 59.1 134.9 61.2 135.8 61.9C136.7 62.5 138 62.7 138 62.7C138 62.7 139.5 71 140 74.4Z" fill="#355FA1"></path><path d="M144.5 88.5C144.9 88.3 145.1 88 145 87.8C144.9 87.3 146.4 81.6 146.7 78.9C147 76.3 146.4 74.1 146.4 73.2C146.4 72.3 148 63.5 148.2 61.8C148.4 60.1 148 56.5 148 56.5C148 56.5 147.8 56.5 147.4 56.4C147.5 57.8 147.8 60.2 147.6 61.4C147.3 63.1 145.2 70.6 145.9 74.7C146.6 78.8 145.8 79.5 145.3 82.6C144.9 84.8 144.6 87.3 144.5 88.5Z" fill="#6C8FC2"></path><path d="M131.8 57C132 57.6 133.1 59.5 134 59.4C135 59.4 136.7 60.2 137.1 60.2C137.6 60.1 142.1 60.6 144.6 59.8C147.1 59 148.7 56.8 148.7 56.6C148.7 56.3 148.3 50.5 148.2 50.4C148.2 50.3 147.3 45.8 147.4 44.2C147.5 42.6 149.6 31.1 149 30.3C148.4 29.5 146 27.3 144.5 26C143 24.7 140.8 23.9 140.8 23.9C140.8 23.9 136.8 24 134.8 25.1C132.9 26.1 132.1 25.8 131.1 27.5C130.1 29.2 130.1 34.8 130.4 37C130.6 38.1 130.8 40 130.9 42C131.1 44.1 131.2 46.2 131.1 47.5C131 49.2 131.2 52.7 131.4 55C131.6 56 131.7 56.8 131.8 57Z" fill="#F7551A"></path><path d="M145.1 26.4C145.1 26.4 142.3 26.2 140.2 30.1C138.1 34 138.3 44.7 138.3 44.7L132.8 43.3C132.8 43.3 132.4 36.1 132.8 32.2C133.2 28.3 137.1 24.3 137.1 24.3L134.3 25.3C134.3 25.3 131.2 29.8 131.1 32.4C131 35 131.4 42.5 131.4 42.5L131.1 42.8C131.1 42.8 131.1 49 131.1 50.1C131.1 51.2 131.2 56.5 131.9 57.7C132.6 59.1 133 60.1 137.8 60.7C142.6 61.3 146.7 60.4 148.1 58.2C148.7 56.6 148.7 56.6 148.7 56.6C148.7 56.6 148.7 52.6 148.4 50.1C148.1 47.6 147.9 42.1 147.9 42.1C147.9 42.1 144.1 42.6 143.2 43C142.3 43.5 141 43.6 141 43.6C141 43.6 140.3 31.6 142.7 29.6C145.1 27.6 146.4 27.5 146.4 27.5L145.1 26.4Z" fill="#355FA1"></path><path d="M131.5 55L139.1 51.3L145.5 46.9L143.4 38.1L142 45.1C142 45.1 135 48.9 133.6 49C132.2 49.1 131.8 49 131.8 49L131 42C131.2 44.1 131.3 46.2 131.2 47.5C131.2 49.1 131.3 52.7 131.5 55Z" fill="#B87A56"></path><path d="M135.8 26.1C135.8 26.1 135.5 28.1 136.7 28.7C137.9 29.2 140.6 28.2 141.7 27.3C142.8 26.4 143.4 26.2 143.2 25.6C143 24.9 142.1 24.7 141.7 23.6C141.3 22.5 141.2 20.7 140.8 19.9C140.4 19.1 135.7 21.1 135.6 22.3C135.5 23.4 135.8 26.1 135.8 26.1Z" fill="#FAC5A8"></path><path d="M125.4 55.5C125.6 55.5 126.9 54.1 126.9 54.1L128.1 53.4L127.3 54L126.7 54.7C126.7 54.7 126.2 55.8 126.1 56.2C126.1 56.6 126.3 56.7 126.5 56.7C126.6 56.7 126.6 56.7 126.7 56.7C126.9 56.7 127.3 55.7 127.3 55.7C127.3 55.7 127.6 55.1 128.5 54.5C129.3 54 129.6 54 129.7 54L128.9 55.1C128.9 55.1 127.8 56.5 127.6 57C127.5 57.4 127.7 57.5 127.9 57.5C128 57.5 128.1 57.5 128.1 57.5C128.4 57.5 129.6 55.7 129.7 55.6C129.8 55.5 130.8 54.5 130.9 54.4L130.7 55L130.6 55.3C130.6 55.3 129.8 56.3 129.6 56.9C129.4 57.5 129.8 57.6 130 57.6C130.1 57.6 130.1 57.5 130.2 57.4C130.3 57.2 130.4 56.9 130.5 56.9C130.6 56.9 131.8 55.1 131.8 55.1C131.8 55.1 132.5 54.9 132.9 54.7C133.2 54.5 134.1 53.8 134.1 53.8C135 53.3 135.3 52.8 135.4 52.4C135.6 51.4 133.9 50.9 133.9 50.9C133.9 50.9 132.3 51.4 131.9 51.5C131.5 51.6 128.6 52.1 128.5 52.2C128.4 52.3 126.6 53.2 126.5 53.2C126.4 53.2 125.3 54.6 125.3 54.6C125.3 54.6 125.1 55.1 125.1 55.3C125 55.4 125.2 55.5 125.4 55.5Z" fill="#FAC5A8"></path><path d="M130.3 57C130.3 57 130.3 57.2 130.2 57.4C130.3 57.2 130.4 56.9 130.5 56.9C130.6 56.9 131.8 55.1 131.8 55.1C131.8 55.1 132.5 54.9 132.9 54.7C133.2 54.5 134.1 53.8 134.1 53.8C135 53.3 135.3 52.8 135.4 52.4C135 52.7 134.4 53.1 133.8 53.7C133.8 53.7 132.8 54.6 132.7 54.6C132.6 54.7 131.7 55 131.7 55C131.6 55.2 130.3 57 130.3 57Z" fill="#FAC5A8"></path><path d="M128.2 57.4C128.1 57.4 128 57.5 127.9 57.6C128 57.6 128.1 57.6 128.1 57.6C128.4 57.6 129.6 55.8 129.7 55.7C129.8 55.6 130.8 54.6 130.9 54.5L130.7 55.1L131.1 54.5C131.1 54.5 130.9 54.4 130.7 54.5C130.5 54.6 129.5 55.7 129.4 55.8C129.4 55.9 128.3 57.4 128.2 57.4Z" fill="#FAC5A8"></path><path d="M126.6 56.8C126.7 56.8 126.7 56.8 126.8 56.8C127 56.8 127.4 55.8 127.4 55.8C127.4 55.8 127.7 55.2 128.6 54.6C129.4 54.1 129.7 54.1 129.8 54.1C129.7 54.1 129.3 54 129.3 54C129.2 54 128.1 54.8 127.7 55.4C127.3 56 127 56.6 126.9 56.7C126.7 56.7 126.7 56.8 126.6 56.8Z" fill="#FAC5A8"></path><path d="M125.4 55.5C125.6 55.5 126.9 54.1 126.9 54.1L128.1 53.4L128.8 53L129.5 52.7C129.5 52.7 128.7 52.9 128.4 53C128.1 53.1 126.6 54 126.6 54.1C126.4 54.2 125.7 55.3 125.4 55.5Z" fill="#FAC5A8"></path><path d="M129 52.4C129 52.4 129 53.8 129.1 54C129.2 54.2 129.2 54.5 129.2 54.8C129.2 54.8 129.2 54.7 129.3 54.7C129.4 54.5 129.2 53.2 129.1 52.9C129.1 52.6 129.3 52.1 129.3 51.4C129.3 50.7 129.7 49.7 129.7 49.7C129.6 49.6 129.6 49.5 129.5 49.4C129.5 49.9 129.4 50.6 129.2 50.9C129.1 51.3 129 52.3 129 52.4Z" fill="#FAC5A8"></path><path d="M150.3 44.6C150.3 44.7 150.2 44.8 150.2 44.9C150.2 44.8 150.2 44.8 150.2 44.7C150.3 44.7 150.3 44.7 150.3 44.6Z" fill="#FAC5A8"></path><path d="M139.4 25.7C139.4 25.7 137.5 28.3 136.2 28.7C134.9 29.1 133.8 28.2 133.5 27.6C133.2 27 134.2 25.5 134.2 25.5C134.2 25.5 139.1 24.1 139.4 25.7Z" fill="#F8D1BC"></path><path d="M143.1 45.6C143.1 45.6 145.2 47.7 147 48.7C147.2 48.8 147.3 48.9 147.5 49C147.7 49.1 148 49.1 148.2 49C148.2 49 148.3 49 148.3 48.9C148.3 48.9 148.4 48.9 148.4 48.8L148.5 48.7C148.5 48.7 148.5 48.7 148.6 48.6L148.7 48.5L148.8 48.4L148.9 48.3C148.9 48.2 149 48.2 149 48.1L149.7 46.7C149.7 46.7 149.7 46.6 149.8 46.5L150 45.9C150 45.8 150 45.8 150.1 45.7V45.5C150.1 45.4 150.2 45.2 150.2 45.1V45C150.2 44.9 150.2 44.9 150.2 44.8C150.2 44.7 150.2 44.7 150.2 44.6V44.5C150.2 44.4 150.3 44.3 150.3 44.1C150.4 43.4 150.6 42.8 150.7 42.1C150.7 42 150.7 41.9 150.7 41.7C150.8 41.1 150.8 40.5 150.8 39.9C150.8 39.8 150.8 39.7 150.8 39.7C150.8 39.5 150.8 39.3 150.8 39.1C150.7 35.5 149.9 30.7 149 30C148.1 29.4 146.1 29.2 144.7 30.9C143.3 32.6 143.6 36.6 143.3 39C143 41.5 143.1 45.6 143.1 45.6Z" fill="#FF862A"></path><path d="M131.6 51.4C131.6 51.4 132 51.3 132.8 52.4C133.2 53 133.4 53.6 133.4 54C133.5 54.4 133.4 54.7 133.4 54.7C133.4 54.7 145.9 50.3 148.2 49C148.3 49 148.3 48.9 148.4 48.9C148.4 48.3 148 47.7 147.6 47.2C146.4 45.9 144.1 45.2 143.1 45.7C141.7 46.3 136.8 49.5 131.6 51.4Z" fill="#FF862A"></path><path d="M133.5 54.6C133.5 54.6 146 50.2 148.3 48.9C148.3 48.9 148.4 48.9 148.4 48.8C148.4 48.8 148.5 48.8 148.5 48.7L148.6 48.6C148.6 48.6 148.6 48.6 148.7 48.5L148.8 48.4L148.9 48.3L149 48.2C149 48.1 149.1 48.1 149.1 48L149.8 46.6C149.8 46.6 149.8 46.5 149.9 46.4L150.1 45.8C150.1 45.7 150.1 45.7 150.2 45.6V45.4C150.2 45.3 150.3 45.1 150.3 45V44.9C150.3 44.8 150.3 44.8 150.3 44.7C150.3 44.6 150.3 44.6 150.3 44.5V44.4C150.3 44.3 150.4 44.2 150.4 44C150.5 43.3 150.7 42.7 150.8 42C150.8 41.9 150.8 41.8 150.8 41.6C150.9 41 150.9 40.4 150.9 39.8C150.9 39.7 150.9 39.6 150.9 39.6C150.9 39.4 150.9 39.2 150.9 39C150.8 35.4 150 30.6 149.1 29.9C149.5 30.9 150.3 36.9 150.1 38.7C149.9 40.2 148.2 44.7 147.6 46.8C147.5 47.1 147.4 47.4 147.4 47.6C147.3 47.9 147.2 48.2 147.1 48.4C146.6 49.1 145.4 49.4 143.7 50.3C141.7 51.3 135 53.3 133.5 53.7C133.5 54.4 133.5 54.6 133.5 54.6Z" fill="#B87A56"></path><path d="M135.1 27.8C135.1 27.8 136.2 27.9 136.5 27.7C136.8 27.5 139.4 25.7 139.8 25.2C140.2 24.7 140.3 23.7 140.3 23.5C140.3 23.3 140.4 20.7 139.8 19.4C139.2 18.1 139 15.9 137.7 15.3C136.4 14.8 131.6 15.2 131.7 18.4C131.8 21.5 132.2 21.5 132.4 22.4C132.6 23.3 132.7 24 133 24.7C133.4 25.5 134.3 27.4 135.1 27.8Z" fill="#FAC5A8"></path><path d="M137.7 18.7C137.7 18.7 138.2 20.7 138.4 20.9C138.6 21.1 139.1 21.5 139.1 21.6C139.1 21.7 139.3 22 139.3 22L139.8 21.8C139.8 21.8 139.9 20.1 140.5 20.7C141 21.3 141.5 23 141.5 23C141.5 23 142.1 20.1 142.2 19.2C142.4 18.3 142.7 15.8 141.1 13.3C139.5 10.8 134.1 11.6 132.9 13.8C131.6 16 131.6 17.1 131.6 18C131.6 18.8 131.8 18.8 131.8 18.8C131.8 18.8 132.3 19.3 134.3 19.2C136.3 19 137.5 18.3 137.7 18.7Z" fill="#4A2727"></path><path d="M140.2 22.2C140.2 22.2 140.1 22.9 140.6 22.9C141.1 22.8 141.9 21.7 141.8 20.6C141.6 19.5 140.6 20.1 140.4 20.4C140.2 20.7 140.2 21.4 140.2 21.6C140.2 21.8 140.2 22.2 140.2 22.2Z" fill="#FFD4BD"></path><path d="M133.9 22.7001C133.9 22.7001 133.6 24.4001 133.6 24.6001C133.6 24.8001 134.5 24.7001 134.6 24.4001C134.8 24.2001 133.8 22.3001 133.9 22.7001Z" fill="#FFD4BD"></path><path d="M133.6 19.4C133.6 19.4 133.4 21.2 133.5 21.6C133.6 22 137.2 21.7 137.3 21.9C137.4 22.1 137.8 22.8 137.7 23.3C137.6 23.8 135.6 24 135.6 24.2C135.6 24.4 136.7 25.5 137 25.4C137.3 25.3 138.9 24.2 139 23.2C139 22.3 138.8 21.7 138.6 21.6C138.4 21.5 138 21.1 137.7 20.6C137.4 20.1 137.4 19 136.9 18.9C136.5 18.9 135.1 19.4 133.6 19.4Z" fill="#FFD4BD"></path><path d="M120.9 105.7H94.6L81.4 98.6L83 89L115 87.9L120.9 105.7Z" fill="#E6DFDA"></path><path d="M132.3 99.1999L120.9 105.7V71.8999L132.3 65.2999V99.1999Z" fill="#95938F"></path><path d="M98.9 93L120.9 105.7V71.9L98.9 59.2V93Z" fill="#7A746E"></path><path d="M132.3 65.3L120.9 71.9L102.1 61.1L98.9 59.2L102.1 57.4L110.3 52.6L132.3 65.3Z" fill="#F7F7F6"></path><path d="M96 59.6999L121.9 74.6999V65.2999L96 50.3999V59.6999Z" fill="#8C8782"></path><path d="M135.2 62.5L121.9 65.3L99.7 52.5L96 50.4L99.7 48.2L109.3 47.5L135.2 62.5Z" fill="#E1E1DC"></path><path d="M123.4 56.4999L117.9 56.6999L113.8 54.2999L112.3 53.3999L117.8 53.2999L123.4 56.4999Z" fill="#FF862A"></path><path d="M114.6 51.2999L108.2 51.8999L104 49.4999L110.3 48.7999L114.6 51.2999Z" fill="#8C8782"></path><path d="M111.3 46.2999C111.3 46.2999 109.4 47.2999 108.5 48.2999C107.6 49.2999 107.4 49.5999 107.4 49.5999H109C109 49.5999 110.6 47.2999 111.5 46.8999C112.4 46.4999 112.4 46.4999 112.4 46.4999L111.3 46.2999Z" fill="#322920"></path><path d="M113.9 47.8999C113.9 47.8999 112 48.8999 111.1 49.8999C110.2 50.8999 110 51.1999 110 51.1999H111.6C111.6 51.1999 113.2 48.8999 114.1 48.4999C115 48.0999 115 48.0999 115 48.0999L113.9 47.8999Z" fill="#322920"></path><path d="M109.7 46L114.2 48.7L116.1 48.7999L116.3 47.7L110.8 44.7L109.9 45.2999L109.7 46Z" fill="#CC1F15"></path><path d="M118.6 55.8C117.5 55.6 116.4 55 116.1 54.5C116.1 54.4 116 54.3 116 54.3L116.2 53.7C116.3 53.4 116.7 53.9 117.6 54.1C118.7 54.3 119.3 54.3 119.6 54.8C119.7 54.9 120.4 54.9 120.4 55C120.4 55 120.2 55.6 120.2 55.7C120 55.8 119.4 55.9 118.6 55.8Z" fill="#CC1F15"></path><path d="M118.7 55.2C117.6 55 116.5 54.4 116.2 53.9C115.9 53.4 116.6 53.2 117.7 53.4C118.8 53.6 119.9 54.2 120.2 54.7C120.5 55.1 119.8 55.4 118.7 55.2Z" fill="#FF2C2A"></path><path d="M122.9 57.8L125.2 59.1L127.1 59.2L127.2 58.4L124.9 57.1L123.2 57L122.9 57.8Z" fill="#8C8782"></path><path d="M123.2 57L125.4 58.4H127.2L124.9 57.1L123.2 57Z" fill="#AAA6A2"></path><path d="M127 60L129.2 61.2999L131.2 61.4L131.3 60.6L129 59.2999L127.2 59.2L127 60Z" fill="#8C8782"></path><path d="M127.2 59.2L129.5 60.6H131.3L129 59.2999L127.2 59.2Z" fill="#AAA6A2"></path><path d="M119.7 57.8L122 59.2L123.9 59.3L124 58.5L121.8 57.2L120 57.1L119.7 57.8Z" fill="#8C8782"></path><path d="M120 57.1L122.2 58.5H124L121.8 57.2L120 57.1Z" fill="#AAA6A2"></path><path d="M123.8 60.0001L126.1 61.4001L128 61.5001L128.1 60.7001L125.9 59.4001L124.1 59.3L123.8 60.0001Z" fill="#8C8782"></path><path d="M124.1 59.3L126.3 60.7001H128.1L125.9 59.4001L124.1 59.3Z" fill="#AAA6A2"></path><path d="M135.2 67L121.9 74.7V65.3L125.6 63.1L135.2 62.5V67Z" fill="#ADABA8"></path><path d="M97.6 107.9L51.7 134.7L4.60001 106.6L49.8 80.3L97.6 107.9Z" fill="#E6DFDA"></path><path d="M14.9 106.2L13 107.3V99.2L14.9 98.1V106.2Z" fill="#827C5A"></path><path d="M11.4 106.3L13 107.3V99.1999L11.4 98.2999V106.3Z" fill="#474536"></path><path d="M57.3 130.7L55.4 131.7V123.7L57.3 122.6V130.7Z" fill="#827C5A"></path><path d="M53.8 130.8L55.4 131.7V123.7L53.8 122.8V130.8Z" fill="#474536"></path><path d="M94.8 108.8L92.9 109.9V101.8L94.8 100.7V108.8Z" fill="#827C5A"></path><path d="M91.3 108.9L92.9 109.9V101.8L91.3 100.9V108.9Z" fill="#474536"></path><path d="M24.4 9.90002V88L14.1 93.9V15.9L24.4 9.90002Z" fill="#D8CFB6"></path><path d="M7.40002 90L14.1 93.9V15.9L7.40002 12V90Z" fill="#B28B64"></path><path d="M24.4 9.9L14.1 15.9L10.3 13.7L7.40002 12L10.2 10.3L17.6 6L24.4 9.9Z" fill="#F7F7F6"></path><path d="M25.6 46L24.4 46.7L14.1 52.9001V18.3L15.1 16.8L24.4 42.9001L25.6 46Z" fill="#A26F4A"></path><path d="M30.1 42L21 47.3V20.2L30.1 15V42Z" fill="#E8E8E8"></path><path d="M24.7 32.9999C24.8 33.6999 24.4 34.5999 23.7 34.9999C23.1 35.3999 22.5 35.0999 22.4 34.2999C22.3 33.5999 22.7 32.6999 23.4 32.2999C24.1 31.8999 24.6 32.1999 24.7 32.9999Z" fill="#689B31"></path><path d="M24 33.1C24.1 33.6 23.8 34.1 23.4 34.4C23 34.6 22.6 34.4 22.6 34C22.5 33.5 22.8 33 23.2 32.8C23.6 32.5 24 32.6 24 33.1Z" fill="#86C95A"></path><path d="M28.7 19L22.4 22.7V22.3L28.7 18.6V19Z" fill="#8C8782"></path><path d="M28.7 21.1L22.4 24.7V24.3L28.7 20.6V21.1Z" fill="#8C8782"></path><path d="M28.7 23.1L22.4 26.8V26.3L28.7 22.7V23.1Z" fill="#8C8782"></path><path d="M28.7 25.1L22.4 28.8V28.4L28.7 24.7V25.1Z" fill="#8C8782"></path><path d="M15.1 43.7999L21 47.2999V20.1999L15.1 16.7999V43.7999Z" fill="#8C8782"></path><path d="M30.1 15L21 20.2L17.6 18.3L15.1 16.8L17.6 15.3L24.1 11.6L30.1 15Z" fill="#F7F7F6"></path><path d="M16.9 70L14.9 71.1V44.4L16.9 43.2V70Z" fill="#E8E8E8"></path><path d="M13.2 70.0999L14.9 71.0999V44.3999L13.2 43.3999V70.0999Z" fill="#8C8782"></path><path d="M16.9 43.2L14.9 44.4L13.9 43.7999L13.2 43.4L13.9 43L15.2 42.2L16.9 43.2Z" fill="#F7F7F6"></path><path d="M47.1 54.1L45.1 55.3V28.5L47.1 27.3V54.1Z" fill="#E8E8E8"></path><path d="M43.4 54.3L45.1 55.3V28.5L43.4 27.5V54.3Z" fill="#8C8782"></path><path d="M47.1 27.3L45.1 28.5L44.1 27.9L43.4 27.5L44.1 27.1L45.4 26.3L47.1 27.3Z" fill="#F7F7F6"></path><path d="M55.5 124.3L8.5 97.1V79.5L55.5 106.7V124.3Z" fill="#B76F3F"></path><path d="M55.5 112.4L8.5 85.2V79.5L55.5 106.7V112.4Z" fill="#8B4A36"></path><path d="M97.6 82.2V99.7L55.5 124.3V106.7L97.6 82.2Z" fill="#D9AF6A"></path><path d="M97.6 82.2V99.7L55.5 124.3V106.7L97.6 82.2Z" fill="#D9AF6A"></path><path d="M97.6 82.2V87.7999L55.5 112.4V106.7L97.6 82.2Z" fill="#B76F3F"></path><path d="M97.6 82.2L55.5 106.7L8.5 79.5L50.6 55L97.6 82.2Z" fill="#EFD995"></path><path d="M56.3 109.5L4.60001 79.7001V74.8L56.3 104.6V109.5Z" fill="#5B5450"></path><path d="M105 76.2001V81.1001L56.3 109.5V104.6L105 76.2001Z" fill="#95938F"></path><path d="M105 76.2L56.3 104.6L4.60001 74.8L53.3 46.4L105 76.2Z" fill="#818181"></path><path d="M52.9 52.4001L49.8 51.8L10.6 74.3L53.5 99H56.5L48.3 92.6001L16.6 74.3L52.9 52.4001Z" fill="#736D6A"></path><path d="M15.1 75.2001L56.4 99.0001L95.4 76.4001L95.3 74.6001L54.1 51.6001L52.7 52.4001L14.9 73.4001L15.1 75.2001ZM54.2 53.5001L63.8 59.0001L64.9 59.6001L65.5 59.9001L66 60.2001L74.1 64.9001L73.5 65.2001L76.9 67.2001L43.3 86.8001L39.9 84.8001L38.3 85.7001L18.4 74.2001L54.2 53.5001ZM55.9 93.4001L46.9 88.2001L46.4 87.9001L80.1 68.4001L89.7 73.9001L55.9 93.4001Z" fill="#7B7F8B"></path><path d="M53 55.2L60.8 59.7L28.8 78.3L30.4 80.9L64.9 62.6L74.3 68L41.3 86.8L44.1 88.1L78.2 69.5L86.8 74.8L54.8 93.4L56.3 95.8L89.7 74.6L54.7 53.4L53 55.2Z" fill="#736D6A"></path><path d="M56.4 97.2001L95.4 74.6001L54.1 50.8L15.1 73.4001L56.4 97.2001ZM54.2 53.5001L63.8 59.0001L30.1 78.5001L21.6 73.6001L21.1 73.3L20.6 73.0001L54.2 53.5001ZM55.9 93.4001L46.9 88.2001L46.4 87.9001L80.1 68.4001L89.7 73.9001L55.9 93.4001ZM43.3 86.8L39.9 84.8L33.2 80.9001L66.9 61.4001L73.6 65.3L77 67.3L43.3 86.8Z" fill="#C5C7CF"></path><path d="M35.8 79.4001L33.2 81.0001L39.9 84.8001L43.3 86.8001L74.7 68.6001L78 67.7001L80.1 67.1001V67.3001L43.4 88.5001L38.4 85.7001L30.4 81.1001V80.9001L35.8 79.4001Z" fill="#9497A1"></path><path d="M43.4 88.6V88.4L30.4 80.9V81.1L43.4 88.6Z" fill="#DBDCE0"></path><path d="M38.5 85.6001L43.3 88.4001L80.1 67.1001L79.6 66.8001L67.2 59.7001L30.5 80.9001L38.5 85.6001ZM43.3 86.8001L39.9 84.8001L33.2 80.9001L66.9 61.4001L73.6 65.3001L77 67.3001L43.3 86.8001Z" fill="#E8E9F0"></path><path d="M43.4 87.7L45.5 87.2L46 87L49.8 85.9L46.4 87.9L46.9 88.3L55.9 93.4L86.5 75.7L88.6 75.2L93 73.9V74.6L56.3 95.8L43.5 88.5L43.4 88.4V87.7Z" fill="#9497A1"></path><path d="M46.4 88.6001L46.9 88.3001L55.9 93.4001L89.1 74.2001L89.7 74.6001L55.9 94.1001L46.4 88.6001Z" fill="#FFFEFF"></path><path d="M17.5 72.9001L24 71.1001L20.5 73.1001L21.1 73.4001L21.6 73.7001L30.1 78.6001L60.6 60.9001L62.8 60.3001L64.9 59.7001L67.1 59.1001V59.7001L30.4 80.9001L18.6 74.1001L17.5 73.5001V72.9001Z" fill="#9497A1"></path><path d="M30.4 80.9V80.3L17.5 72.9V73.5L30.4 80.9Z" fill="#DBDCE0"></path><path d="M20.5 73.7L21.1 73.4L21.6 73.7L30.1 78.6L63.2 59.4L63.8 59.7L30.1 79.2L20.5 73.7Z" fill="#FFFEFF"></path><path d="M46.4 88.6001L80.1 69.1001L89.7 74.6001L89.1 74.9001L80.1 69.7001L46.9 88.9001L46.4 88.6001Z" fill="#9497A1"></path><path d="M33.2 81L66.9 61.4L77 67.3L76.5 67.6L66.9 62.1L33.7 81.3L33.2 81Z" fill="#9497A1"></path><path d="M76.5 67.6L77 67.3L66.9 61.4V62.1L76.5 67.6Z" fill="#DBDCE0"></path><path d="M20.5 73.7001L54.2 54.2001L63.8 59.7001L63.2 60.0001L54.2 54.8001L21.1 74.0001L20.5 73.7001Z" fill="#9497A1"></path><path d="M43.9 88.1001L44.1 88.2001L56.3 95.2001L93 74.0001L80.1 66.6001L43.4 87.8001L43.9 88.1001ZM80.1 68.4001L89.7 73.9001L56 93.4001L47 88.2001L46.5 87.9001L80.1 68.4001Z" fill="#F4F5FA"></path><path d="M19.2 73.8001L30.4 80.3001L67.1 59.1001L54.2 51.7001L17.5 72.9001L19.2 73.8001ZM63.8 59.0001L30.1 78.5001L21.6 73.6001L21.1 73.3001L20.6 73.0001L54.3 53.5001L63.8 59.0001Z" fill="#F4F5FA"></path><path d="M20.5 73.1001L54.2 53.5001L20.5 73.1001Z" fill="#62A6BD"></path><path d="M46.4 87.9L80.1 68.4L89.7 73.9L89.1 74.2L80.1 69.1L46.9 88.3L46.4 87.9Z" fill="#9497A1"></path><path d="M89.1 74.2L89.7 73.9L80.1 68.4V69.1L89.1 74.2Z" fill="#DBDCE0"></path><path d="M20.5 73.1001L54.2 53.5001L63.8 59.0001L63.2 59.4001L54.2 54.2001L21.1 73.4001L20.5 73.1001Z" fill="#9497A1"></path><path d="M63.2 59.4001L63.8 59.0001L54.2 53.5001V54.2001L63.2 59.4001Z" fill="#DBDCE0"></path><path d="M21.1 73.4001L54.2 54.2001L63.2 59.4001L62.7 59.7001L54.2 54.8001L21.6 73.7001L21.1 73.4001Z" fill="#9497A1"></path><path d="M33.7 81.3001L66.9 62.1001L76.5 67.6001L75.9 67.9001L66.9 62.7001L34.3 81.6001L33.7 81.3001Z" fill="#9497A1"></path><path d="M46.9 88.3001L80.1 69.1001L89.1 74.2001L88.6 74.6001L80.1 69.7001L47.5 88.6001L46.9 88.3001Z" fill="#9497A1"></path><path d="M56.3 95.8001V95.2001L43.4 87.7001V88.4001L56.3 95.8001Z" fill="#DBDCE0"></path><path d="M48.3 69.5001H48.5L51.4 67.9001V67.7001L50.7 67.3L50.4 67.4001L48.3 69.5001Z" fill="#C5C7CF"></path><path d="M48.3 69.5V69.3L47.6 68.9V69.1L48.3 69.5Z" fill="#C5C7CF"></path><path d="M51.1 67.7001L48.3 69.3L47.6 68.9001L50.4 67.3L51.1 67.7001Z" fill="#FDFDFE"></path><path d="M48.3 69.5001V69.3001L51.1 67.7001V67.9001L48.3 69.5001Z" fill="#9497A1"></path><path d="M49.4 68.5L49.7 68.2999V67.7L49.4 67.9V68.5Z" fill="#9497A1"></path><path d="M49.4 67.9L49.7 67.7L49.3 67.5L49 67.7L49.4 67.9Z" fill="#A21B00"></path><path d="M49.4 67.9V68.5L49 68.2999V67.7L49.4 67.9Z" fill="#C5C7CF"></path><path d="M46.8 66.0001L47.3 65.8L49.8 67.2001L49.4 67.5001L46.8 66.0001Z" fill="#FDFDFE"></path><path d="M49.4 67.5001L49.8 67.2001V67.8001L49.4 68.0001V67.5001Z" fill="#9497A1"></path><path d="M49.4 67.5L46.8 66V66.6L49.4 68V67.5Z" fill="#C5C7CF"></path><path d="M62.7 77.9001H63L65.8 76.2001V76.0001L65.2 75.6001L64.9 75.7001L62.7 77.9001Z" fill="#C5C7CF"></path><path d="M62.7 77.9001V77.6001L62 77.3V77.5001L62.7 77.9001Z" fill="#C5C7CF"></path><path d="M65.5 76.0001L62.7 77.6001L62 77.3001L64.8 75.6001L65.5 76.0001Z" fill="#FDFDFE"></path><path d="M62.7 77.9001V77.6001L65.5 76.0001V76.2001L62.7 77.9001Z" fill="#9497A1"></path><path d="M63.8 76.9L64.2 76.6V76L63.8 76.2V76.9Z" fill="#9497A1"></path><path d="M63.8 76.2001L64.2 76.0001L63.8 75.8L63.4 76.0001L63.8 76.2001Z" fill="#A21B00"></path><path d="M63.8 76.2V76.9L63.4 76.6V76L63.8 76.2Z" fill="#C5C7CF"></path><path d="M63.4 75.5001L63.8 75.3L66.3 76.7001L65.9 77.0001L63.4 75.5001Z" fill="#FDFDFE"></path><path d="M65.9 77.0001L66.3 76.7001V77.3001L65.9 77.5001V77.0001Z" fill="#9497A1"></path><path d="M65.9 77L63.4 75.5V76.1L65.9 77.5V77Z" fill="#C5C7CF"></path><path d="M56.8 68.1H56.1C55.7 67.5 55.1 67 54.2 66.5C50.8 64.5 45.2 64.5 41.8 66.5C41 66.9 40.5 67.4 40 68H39.2V70.1C39.2 71.4 40.1 72.7 41.8 73.7C45.2 75.7 50.8 75.7 54.2 73.7C55.9 72.7 56.8 71.4 56.7 70.1V68.1H56.8Z" fill="#736D6A"></path><path d="M54.2 71.6C50.8 73.6 45.3 73.6 41.8 71.6C38.4 69.6 38.4 66.4 41.8 64.5C45.2 62.5 50.7 62.5 54.2 64.5C57.6 66.5 57.6 69.7 54.2 71.6Z" fill="#D6D6D6"></path><path d="M53.2 66.6H52.8C52.5 66.3 52.2 65.9 51.7 65.6C49.6 64.4 46.3 64.4 44.3 65.6C43.8 65.9 43.5 66.2 43.3 66.5H42.8V67.7999C42.8 68.5999 43.3 69.3 44.3 69.9C46.4 71.1 49.7 71.1 51.7 69.9C52.7 69.3 53.2 68.4999 53.2 67.7999V66.6Z" fill="#736D6A"></path><path d="M51.7 68.8C49.7 70 46.3 70 44.3 68.8C42.2 67.6 42.2 65.7 44.3 64.5C46.3 63.3 49.7 63.3 51.7 64.5C53.7 65.7 53.8 67.6 51.7 68.8Z" fill="#E7E7E7"></path><path d="M42.8 64.6L40.8 65.7V57.2L42.8 56V64.6Z" fill="#E8E8E8"></path><path d="M39.1 64.7999L40.8 65.7V57.2L39.1 56.2V64.7999Z" fill="#8C8782"></path><path d="M42.8 56L40.8 57.2L39.8 56.6L39.1 56.2L39.8 55.7L41.1 55L42.8 56Z" fill="#F7F7F6"></path><path d="M27.9 69L29.5 69.8L68.7 48.4L67.2 47.5L27.9 69Z" fill="#FCCC45"></path><path d="M29.5 69.8V71.1L68.7 49.7V48.4L29.5 69.8Z" fill="#A64900"></path><path d="M27.9 69V70.2L29.5 71.1V69.8L27.9 69Z" fill="#CE7400"></path><path d="M67.1 48.8L64.4 50.4V47.2L67.1 45.6V48.8Z" fill="#E8E8E8"></path><path d="M38.3 35.3L64.4 50.4V47.2L38.3 32.1V35.3Z" fill="#8C8782"></path><path d="M67.1 45.6L64.4 47.2L39.7 33L38.3 32.1L39.7 31.3L41 30.6L67.1 45.6Z" fill="#F7F7F6"></path><path d="M29 59.2L32.1 60.8L60.7 45.2L57.8 43.4L29 59.2Z" fill="#F7F7F6"></path><path d="M32.1 60.8001V63.3001L60.7 47.7001V45.2001L32.1 60.8001Z" fill="#E8E8E8"></path><path d="M29 59.2001V61.6001L32.1 63.3001V60.8001L29 59.2001Z" fill="#CE7400"></path><path d="M37.3 64.7L34.6 66.3V63.1L37.3 61.5V64.7Z" fill="#E8E8E8"></path><path d="M8.5 51.2L34.6 66.3V63.1L8.5 48V51.2Z" fill="#8C8782"></path><path d="M37.3 61.5L34.6 63.1L9.90001 48.8L8.5 48L9.90001 47.2L11.2 46.4L37.3 61.5Z" fill="#F7F7F6"></path><path d="M50.2 66.6L48.2 67.8V59.2L50.2 58V66.6Z" fill="#E8E8E8"></path><path d="M46.4 66.7999L48.2 67.7999V59.2L46.4 58.2V66.7999Z" fill="#8C8782"></path><path d="M50.2 58L48.2 59.2L47.2 58.6L46.4 58.2L47.2 57.8L48.5 57L50.2 58Z" fill="#F7F7F6"></path><path d="M52 60L48 62.3V55.9L52 53.6V60Z" fill="#E8E8E8"></path><path d="M38.5 56.8L48 62.3V55.9L38.5 50.4V56.8Z" fill="#8C8782"></path><path d="M52 53.6L48 55.9L40 51.2L38.5 50.4L39.9 49.6L42.5 48.1L52 53.6Z" fill="#F7F7F6"></path><path d="M46.6 51.9999L44.6 53.0999V49.9999L46.6 48.7999V51.9999Z" fill="#E8E8E8"></path><path d="M42.8 52.0999L44.6 53.0999V49.9999L42.8 48.9999V52.0999Z" fill="#8C8782"></path><path d="M46.6 48.7999L44.6 49.9999L43.6 49.3999L42.8 48.9999L43.6 48.5999L44.9 47.7999L46.6 48.7999Z" fill="#F7F7F6"></path><path d="M27.9 55.9L29.5 56.7L68.7 35.3L67.2 34.4L27.9 55.9Z" fill="#FCCC45"></path><path d="M29.5 56.7001V58.0001L68.7 36.6001V35.3L29.5 56.7001Z" fill="#A64900"></path><path d="M27.9 55.9V57.1L29.5 58V56.7L27.9 55.9Z" fill="#CE7400"></path><path d="M47.4 50.1L44.7 51.7V48.5L47.4 47V50.1Z" fill="#E8E8E8"></path><path d="M39.1 48.4999L44.7 51.6999V48.4999L39.1 45.2999V48.4999Z" fill="#8C8782"></path><path d="M47.4 47L44.7 48.5L40.6 46.1L39.1 45.2999L40.5 44.5L41.8 43.7L47.4 47Z" fill="#F7F7F6"></path></svg>