<svg xmlns="http://www.w3.org/2000/svg" width="153" height="144" viewBox="0 0 153 144" fill="none"><path d="M59.7527 15.5718L49.3512 21.6826L49.0911 34.0345L59.4927 27.9236L59.7527 15.5718Z" fill="#8E451D"></path><path d="M55.9821 17.782L49.3512 21.6826L33.0988 12.3212L39.7298 8.42065L55.9821 17.782Z" fill="#C26A3A"></path><path d="M78.2153 60.2982L71.1944 62.8986L118.651 90.3327L125.672 87.7323L78.2153 60.2982Z" fill="#EAA875"></path><path d="M83.2861 61.3383L77.5652 67.3191V25.843L83.2861 21.1624V61.3383Z" fill="#BC7D4C"></path><path d="M71.1944 22.2026L60.7929 28.3135L60.5328 40.5354L70.9343 34.5544L71.1944 22.2026Z" fill="#A66135"></path><path d="M100.579 123.878L33.6188 82.0115L30.8885 83.5717V99.6941L100.579 140V123.878Z" fill="#8E451D"></path><path d="M116.051 99.0439V51.1968L68.594 23.7628V71.6098L116.051 99.0439Z" fill="#C2E6F2"></path><path d="M112.8 53.0172L110.2 54.5774L62.7431 27.1434L65.3435 25.5831L112.8 53.0172Z" fill="#E0F7FF"></path><path d="M110.2 102.424V54.5775L62.7431 27.1434V74.9905L110.2 102.424Z" fill="#C2E6F2"></path><path d="M118.651 49.6367L116.051 51.1969L68.594 23.7629L71.1944 22.2026L118.651 49.6367Z" fill="#E0F7FF"></path><path d="M114.881 99.6942L69.3741 71.22L67.4238 72.3902V88.3825L114.881 115.816V99.6942Z" fill="#B6703A"></path><path d="M67.4238 85.522L60.6628 89.4225L108.25 116.857L114.881 112.956L67.4238 85.522Z" fill="#662D00"></path><path d="M68.594 71.6099L65.3435 73.5601L112.8 100.994L116.051 99.0439L68.594 71.6099Z" fill="#8E451D"></path><path d="M108.25 119.717L100.579 124.008V140L108.25 135.579V119.717Z" fill="#A66135"></path><path d="M122.422 111.396L114.881 115.816V131.679L122.422 127.388V111.396Z" fill="#A66135"></path><path d="M108.25 103.595L102.139 107.105L99.2784 108.665V124.788L108.25 119.717V103.595Z" fill="#D49E6F"></path><path d="M99.2785 108.665L54.6819 79.6711L51.8215 81.3614V97.3537L99.2785 124.788V108.665Z" fill="#B57745"></path><path d="M125.672 87.7324L118.651 90.3328V107.885L125.672 103.725V87.7324Z" fill="#D49E6F"></path><path d="M110.2 94.7534L102.139 100.604V107.105L110.2 102.425V94.7534Z" fill="#BC7D4C"></path><path d="M102.139 100.604L54.6819 73.3003V79.6713L102.139 107.105V100.604Z" fill="#B57745"></path><path d="M118.651 97.6138L108.25 103.595V113.866L118.651 107.885V97.6138Z" fill="#BC7D4C"></path><path d="M124.372 104.505L114.881 109.966V115.817L124.372 110.356V104.505Z" fill="#BC7D4C"></path><path d="M112.8 53.0173L110.2 54.5776V102.425L112.8 100.994V53.0173Z" fill="#3C90A1"></path><path d="M118.651 49.6368L116.051 51.197V99.0441L118.651 97.6138V49.6368Z" fill="#3C90A1"></path><path d="M114.881 112.956L108.25 116.857V135.579L114.881 131.679V112.956Z" fill="#8E451D"></path><path d="M62.7431 67.3192L54.6819 73.3001L102.139 100.604L110.2 94.7532L62.7431 67.3192Z" fill="#EAA875"></path><path d="M46.7508 20.2524L39.2096 24.6731L25.4276 16.6119L33.0988 12.3213L46.7508 20.2524Z" fill="#D78A59"></path><path d="M39.9898 104.895L39.2096 24.673L25.4276 16.6118L26.2077 96.9636L39.9898 104.895Z" fill="#8E451D"></path><path d="M61.0529 12.0612L53.5117 16.3518L39.7297 8.42068L47.2708 4L61.0529 12.0612Z" fill="#D78A59"></path><path d="M60.7928 28.3136L51.8215 33.3844L37.9094 25.3232L46.7508 20.2524L60.7928 28.3136Z" fill="#FFCB9E"></path><path d="M51.8215 97.3536V33.3843L37.9094 25.3231V89.4225L51.8215 97.3536Z" fill="#B57745"></path><path d="M83.2862 21.1625L77.5653 25.8432L62.3531 17.1319L69.3741 13.1013L83.2862 21.1625Z" fill="#FFCB9E"></path><path d="M69.3741 30.914L60.2728 35.0746L54.6819 31.8241L62.7431 27.1434L69.3741 30.914Z" fill="#EAA875"></path><path d="M69.3741 71.2197L60.2727 76.5505V35.0744L69.3741 30.9138V71.2197Z" fill="#BC7D4C"></path><path d="M71.1944 22.2026L60.7929 28.3135L51.8215 23.1127L62.3531 17.1318L71.1944 22.2026Z" fill="#EAA875"></path><path d="M68.0739 13.7514L58.5825 19.3422L53.5117 16.3518L63.0032 10.891L68.0739 13.7514Z" fill="#EAA875"></path><path d="M58.5825 19.3423L53.5117 16.3518V22.2027L58.5825 19.3423Z" fill="#B6703A"></path><path d="M60.2727 76.5506V35.0746L54.6819 31.8241V73.3001L60.2727 76.5506Z" fill="#B57745"></path><path d="M54.6819 79.671L51.8215 81.3613L99.2785 108.665L102.139 107.105L54.6819 79.671Z" fill="#FFCB9E"></path><path d="M54.6819 79.6711L51.8215 81.3613V33.3843L54.6819 31.8241V79.6711Z" fill="#D49E6F"></path></svg>