<svg xmlns="http://www.w3.org/2000/svg" width="153" height="144" viewBox="0 0 153 144" fill="none"><g clip-path="url(#clip0_4_1231)"><path d="M19.6328 57.6348L89.5885 16.7897L5.75444 60.0043L6.09294 60.6813L19.6328 57.6348Z" fill="#9C480C"></path><path d="M139.122 45.562L89.5885 16.9027L153 47.8186V48.7213L139.122 45.562Z" fill="#D9AF6A"></path><path d="M69.1659 124.319L19.6328 95.6594V56.8452L69.1659 85.5045V124.319Z" fill="#B76F3F"></path><path d="M19.6328 56.8452V95.6594L69.1659 124.319L20.7611 95.0952L19.6328 56.8452Z" fill="#A45823"></path><path d="M139.122 44.6593V83.4735L126.485 90.9204L121.069 94.0797L107.867 101.639L100.533 105.927L86.542 114.164L80.9004 117.436L69.1659 124.319V85.5044L80.9004 78.6217L86.542 75.3496L100.533 67.1128L102.226 66.0974L107.867 62.8252L121.069 55.2655L126.485 52.1062L139.122 44.6593Z" fill="#D9AF6A"></path><path d="M69.1659 124.319L139.122 83.4735V82.7965L69.1659 123.642V124.319Z" fill="#B58847"></path><path d="M30.8031 78.5089L22.1151 73.5443V60.7943L30.8031 65.7589V78.5089ZM23.0177 72.9801L30.0133 77.0421V66.2102L23.0177 62.1483V72.9801Z" fill="#8C4320"></path><path d="M24.823 72.3032L27.7566 73.9957V70.4979L24.823 68.8054V72.3032Z" fill="#8C4320"></path><path d="M23.469 68.0155L29.2235 71.2876L26.2898 65.3075L23.469 68.0155Z" fill="#8C4320"></path><path d="M89.5885 16L79.208 21.9801L74.0177 25.0265L19.6328 56.8451L5.75444 60.0044L75.2589 19.4978L75.7102 19.2721L79.4336 18.3695L89.5885 16Z" fill="#D9AF6A"></path><path d="M153 47.8186L139.122 44.6593L116.442 31.5708L105.949 25.4779L89.5885 16L103.467 19.2721L107.303 21.4159L119.489 28.4115L153 47.8186Z" fill="#E8C583"></path><path d="M139.122 44.6593L126.485 52.1062L121.069 55.2655L107.867 62.8252L102.226 66.0973L100.533 67.1128L86.542 75.3496L80.9004 78.6217L69.1659 85.5044L67.812 84.7146L59.9137 80.0885L19.6328 56.8451L89.5885 16L116.33 31.458L126.485 37.3252L139.122 44.6593Z" fill="#EFD995"></path><path d="M73.2279 81.2167L78.8695 77.9446L80.4491 78.9601L74.8075 82.2322L73.2279 81.2167Z" fill="#D69985"></path><path d="M92.8606 69.708L100.195 65.4204L101.774 66.4359L94.4403 70.7235L92.8606 69.708Z" fill="#D69985"></path><path d="M113.17 57.7477L118.699 54.5884L120.279 55.6039L114.863 58.876L113.17 57.7477Z" fill="#D69985"></path><path d="M135.962 44.6592L129.644 48.2699L129.305 48.4955L128.516 48.9469L125.92 50.4137L125.131 50.865L124.341 51.3163L124.228 51.4292L122.423 52.4446L111.252 58.8761L110.462 59.3274L108.77 60.3429L107.867 60.907L105.723 62.1482L104.934 62.5995L104.482 62.8252H104.369L104.031 63.0508L101.662 64.5177L95.5686 68.1283L90.2655 71.1747L89.0244 71.9646L88.2345 72.4159L88.0089 72.5287L86.4292 73.4314L85.6394 73.8827L84.8496 74.334V74.4469L83.2699 75.3495L76.6129 79.2986L71.9867 82.0066L71.0841 82.4579L69.3916 83.4734L69.1659 83.5862L66.5708 82.1194L38.3629 65.8716L27.0797 59.3274L22.7921 56.8451L89.5885 17.9181L135.962 44.6592Z" fill="#9F5939"></path><path d="M60.4779 102.542L10.9447 73.9954L10.6062 73.2056L69.1659 85.5042V86.7454L60.4779 102.542Z" fill="#D9AF6A"></path><path d="M60.1394 101.865L10.6062 73.2056L19.6327 56.845L69.1659 85.5043L60.1394 101.865Z" fill="#E5BC71"></path><path d="M139.122 68.1281V63.6149L69.1659 86.7454V91.3715L76.2743 104.46L80.9004 101.752V117.436L86.542 114.164V98.4799L100.533 90.4688V105.927L107.867 101.639V86.1812L121.069 78.6215V94.0795L126.485 90.9202V75.4622L139.122 68.1281Z" fill="#D69985"></path><path d="M77.7412 102.316L147.81 61.4712L148.148 61.0199L69.1659 85.5044V86.7456L77.7412 102.316Z" fill="#B76F3F"></path><path d="M148.148 61.0199L126.372 73.7699L120.956 76.9292L107.867 84.6018L100.533 88.7766L86.542 97.0133L80.9004 100.285L78.1925 101.865L69.1659 85.5044L74.8075 82.2323L80.4491 78.9602L94.4403 70.7235L101.774 66.4359L114.863 58.8761L120.279 55.604L139.122 44.6593L148.148 61.0199Z" fill="#FDE697"></path><path d="M86.542 97.2388L80.9004 100.511V100.285L74.8075 82.2322L80.4491 78.9601L86.542 97.0132V97.2388Z" fill="#D69985"></path><path d="M107.867 84.8274L100.533 89.0022V88.7765L94.4403 70.7234L101.774 66.4358L107.867 84.6017V84.8274Z" fill="#D69985"></path><path d="M126.485 73.9955L121.069 77.1548L120.956 76.9291L114.863 58.876L120.279 55.6039L126.372 73.7698L126.485 73.9955Z" fill="#D69985"></path><path d="M60.1394 101.865L10.6062 73.2056L10.9447 73.9954L60.4779 102.542L60.1394 101.865Z" fill="#9C480C"></path><path d="M89.5885 17.9181V71.4004L69.1659 83.5862L22.7921 56.8451L89.5885 17.9181Z" fill="#D19F66"></path><path d="M69.1659 124.319H48.0664L0 97.3518L19.6327 84.2633V95.6593L69.1659 124.319Z" fill="#E6DFDA"></path><path d="M85.7522 128.042L58.6726 124.319H69.1659L72.6637 122.288L81.3518 123.19L94.4403 115.856L80.9004 117.436L86.542 114.164L99.1792 113.261L114.863 104.235L100.533 105.927L107.867 101.639L122.31 100.511L135.06 93.1771L121.069 94.0798L126.485 90.9205L145.553 89.6793L141.83 93.1771L85.7522 128.042Z" fill="#E6DFDA"></path><path d="M91.6195 26.719L89.7013 25.5907H89.5885L27.0796 59.3274L38.4757 65.8717L66.6836 82.1195L69.2788 83.5863L69.5044 83.4734L71.1969 82.458L71.9867 82.0066L76.6128 79.2987L83.2699 75.3495L84.7367 74.4469L85.5265 73.9956L86.3164 73.5442L87.7832 72.6416L88.0088 72.5287L88.7987 72.0774L90.0398 71.2876L95.2301 68.2411L85.6394 62.4867L77.6283 57.6349L70.7456 53.4602L61.042 47.3672L60.2522 46.9159L59.3495 46.3518L58.4469 45.7876L71.0841 38.792L71.9867 38.3407L72.8894 37.8894L89.5885 28.6372L125.807 50.4137L128.403 48.9469L129.192 48.4956L91.6195 26.719Z" fill="#7B7F8B"></path><path d="M129.644 48.2699L129.305 48.4956L128.515 48.9469L125.92 50.4137L125.131 50.8651L124.341 51.3164L124.228 51.4292L122.423 52.4447L111.252 58.8761L110.462 59.3274L108.77 60.3429L107.867 60.9071L105.723 62.1482L104.934 62.5996L104.482 62.8252H104.369L104.031 63.0509L101.661 64.5177L95.5686 68.1283L90.2655 71.1748L89.0243 71.9646L88.2345 72.4159L88.0088 72.5288L86.4292 73.4314L85.6394 73.8828L84.8495 74.3341V74.4469L83.2699 75.3496L76.6128 79.2987L71.9867 82.0066L71.0841 82.458L69.3916 83.4735L69.1659 83.5863L66.5708 82.1195L38.3628 65.8717L27.0796 59.3274L90.0398 24.4624L129.644 48.2699Z" fill="#C5C7CF"></path><path d="M92.6349 61.8098L101.661 64.5178L95.5686 68.1284L90.2655 71.1749L89.0243 71.9647L88.2345 72.416L88.0088 72.5288L76.6128 65.7589L76.3872 65.5333L74.469 64.4049L74.2433 64.2921L74.0177 64.1793L73.6792 63.9536L73.0022 63.5023L72.3252 63.1638L71.9867 62.9381L71.7611 62.8253L49.3075 49.2855V49.0598L52.5796 49.9625L57.5442 51.4293L65.3296 53.7987L77.854 57.5222L92.6349 61.8098Z" fill="#9497A1"></path><path d="M107.867 60.9071L105.723 62.1483L104.934 62.5996L104.482 62.8253H104.369L104.031 63.0509L101.661 64.5178L95.5686 68.1284L90.2655 71.1748L89.0243 71.9647L88.2345 72.416L76.8385 65.6461L76.6128 65.4204L74.6947 64.2921L74.2433 64.0664L73.9049 63.8408L73.6792 63.7279L73.4535 63.5023L73.2279 63.3894L72.5509 63.0509L72.2124 62.8253L71.9867 62.7124L49.3075 49.0598L50.2102 48.6085L69.5044 37.7766L71.1969 38.7921L107.867 60.9071Z" fill="#E8E9F0"></path><path d="M105.723 62.1483L104.934 62.5996L104.482 62.8253H104.369L104.031 63.051L101.661 64.5178L95.5686 68.1284L90.2655 71.1748L76.7256 63.051L61.8318 54.0244L57.5442 51.4293L55.7389 50.4138L54.8363 49.8496L54.0464 49.3983L59.3495 46.3518L69.8429 40.5974L105.723 62.1483Z" fill="#62A6BD"></path><path d="M83.2699 75.3497L76.6128 79.2988L71.8739 82.0068L71.0841 82.4581L69.3916 83.4736L69.1659 83.5864L66.5708 82.1196L57.4314 76.8165L48.8562 71.8519L38.3628 65.8718L29.1106 60.2302V59.2147L35.7677 61.2457L39.0398 62.1483V62.2612L48.7434 65.082L56.8673 67.4514L64.3142 69.7081L83.2699 75.3497Z" fill="#9497A1"></path><path d="M85.6394 73.8827L84.8495 74.334V74.4468L83.2699 75.3495L76.6128 79.2986L71.9867 82.0066L71.0841 82.4579L35.7677 61.2455L35.0907 60.7942L34.188 60.3428L35.0907 59.7787L40.8451 56.6194L43.1018 55.3782L48.4049 52.4446L49.1947 51.9933L70.2942 64.7433L70.9712 65.0818L71.3097 65.3074L85.6394 73.8827Z" fill="#FFFEFF"></path><path d="M114.524 50.1879L122.423 52.4446L111.252 58.876L110.462 59.3273L108.77 60.3428L107.867 60.907L71.1969 38.7919L69.5044 37.7764V36.8738L73.0022 37.8893L76.2743 38.7919L79.5465 39.8074L81.5774 40.3716L114.524 50.1879Z" fill="#9497A1"></path><path d="M89.7013 29.5398L125.131 50.865L124.341 51.3163L124.228 51.4292L122.423 52.4447L111.252 58.8761L110.462 59.3274L99.6305 52.896L99.4049 52.7832L97.4867 51.542L96.9226 51.2035L96.3584 50.865L95.2301 50.188H95.1173L76.2743 38.792L75.5973 38.3407L74.6947 37.8894L75.5973 37.438L86.542 31.3451L88.9115 29.9911L89.7013 29.5398Z" fill="#FFFEFF"></path><path d="M85.6394 73.8827L84.8495 74.334V74.4468L67.0221 63.7278L52.1283 54.7013L49.1947 53.0088L45.1327 55.2654L40.6195 57.7477L35.8805 60.3428L35.0907 60.7942L34.188 60.3428L35.0907 59.7787L40.8451 56.6194L43.1018 55.3782L48.4049 52.4446L49.1947 51.9933L70.2942 64.7433L70.9712 65.0818L71.3097 65.3074L85.6394 73.8827Z" fill="#9497A1"></path><path d="M105.723 62.1483L104.934 62.5996L69.8429 41.5001L69.3916 41.8386L66.458 43.4182L60.2522 46.916L59.688 47.2545L54.8363 49.8496L54.0464 49.3983L59.3495 46.3518L69.8429 40.5974L105.723 62.1483Z" fill="#9497A1"></path><path d="M54.8363 49.8496L54.0464 49.3983L69.8429 40.5974V41.5001L54.8363 49.8496Z" fill="#DBDCE0"></path><path d="M89.7013 29.5398L125.131 50.865L124.341 51.3163L124.228 51.4292L121.407 49.6239H121.294L103.354 38.792L89.7013 30.5553L76.3871 37.8894L75.5973 38.3407L74.6947 37.8894L75.5973 37.438L86.542 31.3451L88.9115 29.9911L89.7013 29.5398Z" fill="#9497A1"></path><path d="M89.0243 71.9647L88.2345 72.416L88.0088 72.5288L86.4292 73.4315L85.6394 73.8828L84.8495 74.3341V74.447L83.2699 75.3496L76.6128 79.2987L71.9867 82.0067L71.0841 82.458L69.3916 83.4735L29.1106 59.2147L49.3075 48.0443L50.2102 48.6085L52.5796 49.9624L73.4535 62.5996L74.1305 62.9381L74.6947 63.2766L74.8075 63.3894H74.9204L89.0243 71.9647Z" fill="#F4F5FA"></path><path d="M86.4292 73.4313L85.6394 73.8827L84.8495 74.334V74.4468L83.2699 75.3495L76.6128 79.2986L71.9867 82.0065L68.3761 79.8627L44.3429 65.4203L39.0398 62.261L35.8805 60.3428L35.6549 60.23L35.0907 59.7787L34.188 59.3273L49.1947 50.9778L70.7456 63.9534L71.4225 64.4048L72.2124 64.8561L86.4292 73.4313Z" fill="#62A6BD"></path><path d="M91.6195 26.719L128.515 48.9469L125.92 50.4137L125.131 50.865L124.341 51.3164L124.228 51.4292L122.423 52.4447L111.252 58.8761L110.462 59.3274L108.77 60.3429L72.0995 38.3407L69.5044 36.8739L89.7013 25.7035L89.8141 25.5907L91.6195 26.719Z" fill="#F4F5FA"></path><path d="M89.7013 28.6371L125.92 50.4136L125.131 50.865L124.341 51.3163L124.228 51.4291L122.423 52.4446L111.252 58.876L98.7279 51.3163L97.7124 50.7521L97.0354 50.3008H96.9226L96.5841 50.0751L96.3584 49.8495L80.6748 40.4844L79.5464 39.8074L76.3871 37.8893H76.2743L75.5973 37.438L74.6947 36.8738L89.7013 28.6371Z" fill="#62A6BD"></path><path d="M86.4292 73.4313L85.6394 73.8827L71.3097 65.3074L70.9712 65.0818L70.2942 64.7433L49.1947 51.9933L48.4049 52.4446L43.1018 55.3782L40.8451 56.6194L35.0907 59.7787L34.188 59.3273L49.1947 50.9778L70.7456 63.9534L71.4225 64.4048L72.2124 64.8561L86.4292 73.4313Z" fill="#9497A1"></path><path d="M35.0907 59.7787L34.188 59.3273L49.1947 50.9778V51.9933L35.0907 59.7787Z" fill="#DBDCE0"></path><path d="M125.92 50.4136L125.131 50.865L89.7013 29.5397L88.9115 29.9911L86.542 31.345L75.5973 37.438L74.6947 36.8738L89.7013 28.6371L125.92 50.4136Z" fill="#9497A1"></path><path d="M75.5973 37.438L74.6947 36.8738L89.7013 28.6371V29.5397L75.5973 37.438Z" fill="#DBDCE0"></path><path d="M84.8496 74.3341V74.4469L83.2699 75.3496L76.6128 79.2987L71.9867 82.0066L68.3761 79.8628L44.3429 65.4204L39.0398 62.2611L35.8805 60.3429L35.6549 60.2301L35.0907 59.7788L40.8451 56.6195L43.1018 55.3783L48.4049 52.4447L52.1283 54.7013L67.135 63.7279L84.8496 74.3341Z" fill="#C2E6F2"></path><path d="M84.8495 74.3341V74.4469L83.2699 75.3496L76.6128 79.2987L68.3761 79.8629L44.3429 65.4204L48.7434 65.0819L67.0221 63.7279H67.1349L84.8495 74.3341Z" fill="#E0F7FF"></path><path d="M43.1018 55.3783L52.1283 54.7013L48.4049 52.4447L43.1018 55.3783Z" fill="#E0F7FF"></path><path d="M121.407 49.6238L124.341 51.3163L124.228 51.4291L122.423 52.4446L111.252 58.876L98.7279 51.3163L97.7124 50.7522L97.0354 50.3008L96.5841 50.0752L96.3584 49.8495L80.6748 40.4845L79.5465 39.8075L76.3872 37.8893H76.2743L75.5973 37.438L86.542 31.3451L88.9115 29.9911L103.467 38.792L121.407 49.6238Z" fill="#C2E6F2"></path><path d="M121.407 49.6238L103.467 38.792L80.6748 40.4845L98.7279 51.3163L121.407 49.6238Z" fill="#E0F7FF"></path><path d="M89.7013 29.5398L125.131 50.865L124.341 51.3163L124.228 51.4292L121.407 49.6239H121.294L103.354 38.792L89.7013 30.5553L76.3872 37.8894H76.2743L75.5973 37.438L86.542 31.3451L88.9115 29.9911L89.7013 29.5398Z" fill="#92C7E3"></path><path d="M104.369 62.8252L104.031 63.0509L101.661 64.5177L95.5686 68.1283L90.2655 71.1748L76.7257 63.0509L61.8318 54.0243L57.5442 51.4292L55.7389 50.4137L54.8363 49.8496L60.2522 46.9159L69.3916 41.8385L86.6549 52.219L101.549 61.2456L104.369 62.8252Z" fill="#C2E6F2"></path><path d="M104.369 62.8251L104.031 63.0508L101.662 64.5176L95.5686 68.1282L90.2655 71.1747L76.7257 63.0508L85.9779 62.3738L92.635 61.8096L100.985 61.2455H101.549L104.369 62.8251Z" fill="#E0F7FF"></path><path d="M61.8318 54.0243L86.6549 52.219L69.3916 41.8385L54.8363 49.8496L61.8318 54.0243Z" fill="#E0F7FF"></path><path d="M104.934 62.5996L104.482 62.8252H104.369L104.031 63.0509L100.984 61.2456L85.9779 52.219L69.8429 42.5155L61.042 47.3673L55.7389 50.4137L54.8363 49.8496L59.688 47.2544L60.2522 46.9159L63.9757 44.7721L66.458 43.4181L69.3916 41.8385L69.8429 41.5L104.934 62.5996Z" fill="#92C7E3"></path><path d="M85.6394 73.8827L84.8496 74.334V74.4468L67.0221 63.7278L52.1283 54.7013L49.1947 53.0088L45.1327 55.2654L40.6195 57.7477L35.8805 60.3428L35.6549 60.23L35.0907 59.7787L40.8451 56.6194L43.1018 55.3782L48.4049 52.4446L49.1947 51.9933L70.2942 64.7433L70.9712 65.0818L71.3097 65.3074L85.6394 73.8827Z" fill="#92C7E3"></path><path d="M98.5022 53.573H98.1637L93.7633 50.9778V50.6394L94.7788 50.0752L95.2301 50.188L98.5022 53.573Z" fill="#C5C7CF"></path><path d="M98.5022 53.5729L98.615 53.2344L99.6305 52.6703V53.0088L98.5022 53.5729Z" fill="#C5C7CF"></path><path d="M94.2146 50.6394L98.615 53.2345L99.6305 52.6703L95.3429 50.0752L94.2146 50.6394Z" fill="#E0F7FF"></path><path d="M98.5022 53.5729L98.615 53.2344L94.2146 50.6393V50.9778L98.5022 53.5729Z" fill="#9497A1"></path><path d="M96.8097 51.9933L96.2456 51.6548L96.3584 50.7522L96.9226 51.0907L96.8097 51.9933Z" fill="#9497A1"></path><path d="M96.9226 51.0906L96.3584 50.7521L96.9226 50.3008L97.4867 50.6393L96.9226 51.0906Z" fill="#A21B00"></path><path d="M96.9226 51.0907L96.8097 51.9934L97.4867 51.6549V50.6394L96.9226 51.0907Z" fill="#C5C7CF"></path><path d="M100.872 48.157L100.195 47.7057L96.2456 49.9623L96.9226 50.3008L100.872 48.157Z" fill="#E0F7FF"></path><path d="M96.9226 50.3008L96.2456 49.9623V50.7521L96.9226 51.2034V50.3008Z" fill="#9497A1"></path><path d="M96.9226 50.3008L100.872 48.157V48.9468L96.9226 51.2034V50.3008Z" fill="#C5C7CF"></path><path d="M75.9358 66.0973H75.4845L71.1969 63.5021V63.1636L72.0996 62.5995L72.6637 62.7123L75.9358 66.0973Z" fill="#C5C7CF"></path><path d="M75.9358 66.0974V65.7589L77.0642 65.1947V65.5332L75.9358 66.0974Z" fill="#C5C7CF"></path><path d="M71.6482 63.1636L75.9358 65.7588L77.0642 65.1946L72.6637 62.5995L71.6482 63.1636Z" fill="#E0F7FF"></path><path d="M75.9358 66.0973V65.7588L71.6482 63.1637V63.5022L75.9358 66.0973Z" fill="#9497A1"></path><path d="M74.2434 64.5177L73.6792 64.1792V63.1637L74.2434 63.5022V64.5177Z" fill="#9497A1"></path><path d="M74.2434 63.5022L73.6792 63.1637L74.3562 62.8252L74.9204 63.1637L74.2434 63.5022Z" fill="#A21B00"></path><path d="M74.2434 63.5022V64.5177L74.8075 64.1792L74.9204 63.1637L74.2434 63.5022Z" fill="#C5C7CF"></path><path d="M74.9204 62.4867L74.2434 62.0354L70.2942 64.292L70.9712 64.6305L74.9204 62.4867Z" fill="#E0F7FF"></path><path d="M70.9712 64.6305L70.2942 64.292V65.0818L70.9712 65.5331V64.6305Z" fill="#9497A1"></path><path d="M70.9712 64.6305L74.9204 62.4867V63.2765L70.9712 65.5332V64.6305Z" fill="#C5C7CF"></path><path d="M135.962 44.6593L123.551 51.8806L118.022 55.0398L107.754 60.9071L104.821 62.7124L97.7124 66.8872L83.8341 75.0111L78.0796 78.396L69.1659 83.5863L59.011 77.8319L60.365 77.0421L62.0575 76.0266L63.5243 76.9292L69.5044 73.4314L77.2898 68.9182L75.9358 68.1284L80.6748 65.4204L82.0287 66.2102L83.6084 65.3076L90.0398 61.6969L96.8097 57.7478L95.3429 56.8452L100.646 53.9115L101.774 53.2345L103.241 54.0244L109.108 50.6394L117.119 46.1261L116.555 44.7722L119.15 43.1925L121.407 43.3053L135.962 44.6593Z" fill="#B59FA6"></path><path d="M109.108 50.6394L103.241 54.0243L101.774 53.2345L100.646 53.9115L94.2146 53.4602L81.1261 61.0199L90.0398 61.6969L83.6084 65.3075L73.792 64.292L74.5818 63.8407L75.4845 63.2766L73.792 64.292L65.104 69.2566L64.3141 69.708L59.8009 72.4159L69.5044 73.4314L63.5243 76.9292L62.0575 76.0266L60.365 77.042L57.4314 76.8164L48.8562 71.8518L56.8672 67.4513L89.0243 49.7367L89.1371 49.6239L92.0708 49.2854L109.108 50.6394Z" fill="#B59FA6"></path><path d="M147.358 19.8363L83.2699 56.8452V126.801L85.7522 128.042L148.712 90.6947V90.5819V88.2124L149.841 21.0775L147.358 19.8363ZM146.117 89.1151L131.336 97.6903L129.644 98.7058L128.741 99.2699L127.838 99.7213L115.314 106.942V105.927L110.011 108.973V48.6084L115.314 45.562V42.7412L146.117 24.9137V89.1151ZM91.1681 60.4558L105.159 52.4447L106.062 51.9934V112.471L91.281 121.046V60.4558H91.1681Z" fill="#7B7F8B"></path><path d="M85.7522 58.0864V128.042L149.841 91.0333V21.0775L85.7522 58.0864ZM146.117 89.1151L131.336 97.6903V37.3253L144.425 29.7656L145.327 29.3142L146.23 28.8629V89.1151H146.117ZM91.1681 60.4558L105.159 52.4448L106.062 51.9934V112.471L91.281 121.047V60.4558H91.1681ZM109.898 48.6085L115.201 45.562L125.582 39.5819V100.06L115.201 106.04L109.898 109.086V48.6085Z" fill="#C5C7CF"></path><path d="M125.582 44.2081V39.582L115.201 45.5621L109.898 48.6086V104.912L108.657 109.989L107.754 113.261L107.529 113.148V47.3674L115.201 42.8541L127.613 35.7457L127.838 35.8586L125.582 44.2081Z" fill="#9497A1"></path><path d="M107.529 47.3674L107.754 47.4802L127.838 35.8586L127.613 35.7457L107.529 47.3674Z" fill="#DBDCE0"></path><path d="M115.201 43.1925L107.754 47.4801V113.261L108.657 112.81L127.838 101.752V35.8584L115.201 43.1925ZM109.898 48.6084L115.201 45.5619L125.582 39.5819V100.06L115.201 106.04L109.898 109.086V48.6084Z" fill="#E8E9F0"></path><path d="M108.657 47.9316L107.754 51.2037L107.529 52.1063L105.949 58.0864V51.8807L105.159 52.332L91.1681 60.4559V115.292L90.3783 118.564L88.573 125.334L87.6703 124.77V58.9891L107.529 47.5931L107.754 47.4802L108.657 47.9316Z" fill="#9497A1"></path><path d="M105.159 51.3164V52.3319L91.1681 60.4558V119.805L90.3783 120.37V59.8916L105.159 51.3164Z" fill="#FFFEFF"></path><path d="M148.712 24.8009L146.117 34.843V34.9558V28.7501L145.215 29.2014L144.425 29.6527L131.223 37.3253V92.0487L130.434 95.3208L129.531 98.7058L128.628 102.204L127.838 101.639V35.8585L146.117 25.3651L147.81 24.3496L148.712 24.8009Z" fill="#9497A1"></path><path d="M127.838 35.8585L128.628 36.4226L148.712 24.8009L147.81 24.3496L127.838 35.8585Z" fill="#DBDCE0"></path><path d="M145.215 28.186V29.2015L144.425 29.6528L131.223 37.3254V96.675L130.434 97.2391V36.7613L145.215 28.186Z" fill="#FFFEFF"></path><path d="M105.159 51.3164V111.794L90.3783 120.37V119.354L104.257 111.343V51.8806L105.159 51.3164Z" fill="#9497A1"></path><path d="M125.582 39.5819V99.9469L109.898 109.086V108.071L124.792 99.4956V40.0332L125.582 39.5819Z" fill="#9497A1"></path><path d="M109.898 108.071V109.086L125.582 99.9469L124.792 99.4956L109.898 108.071Z" fill="#DBDCE0"></path><path d="M145.215 28.186V88.6639L130.434 97.2391V96.2236L144.425 88.2126V28.7502L145.215 28.186Z" fill="#9497A1"></path><path d="M107.754 48.4958L107.529 48.6086L88.573 59.5533V125.334L108.657 113.713V47.9316L107.754 48.4958ZM105.949 112.246L91.1681 120.821V60.456L105.159 52.4449L106.062 51.9936V112.246H105.949Z" fill="#F4F5FA"></path><path d="M146.117 26.3807L128.741 36.4227V102.204L148.712 90.6948V24.801L146.117 26.3807ZM131.223 97.6904V37.3254L144.312 29.7656L145.215 29.3143L146.117 28.863V89.228L131.223 97.6904Z" fill="#F4F5FA"></path><path d="M105.949 51.8806V112.246L91.1681 120.821V119.805L105.159 111.794V52.3319L105.949 51.8806Z" fill="#9497A1"></path><path d="M91.1681 119.806V120.821L105.949 112.246L105.159 111.794L91.1681 119.806Z" fill="#DBDCE0"></path><path d="M146.117 28.7501V89.1152L131.223 97.6904V96.6749L145.215 88.6638V29.2015L146.117 28.7501Z" fill="#9497A1"></path><path d="M131.223 96.6749V97.6904L146.117 89.1151L145.215 88.6638L131.223 96.6749Z" fill="#DBDCE0"></path><path d="M145.215 29.2014V88.6638L131.223 96.6749V95.7722L144.425 88.2125V29.6527L145.215 29.2014Z" fill="#9497A1"></path><path d="M124.792 40.0333V99.4957L109.898 108.071V107.055L123.889 98.9315V40.4847L124.792 40.0333Z" fill="#9497A1"></path><path d="M105.159 52.3318V111.794L91.1681 119.805V118.903L104.257 111.343V52.7831L105.159 52.3318Z" fill="#9497A1"></path><path d="M87.6703 58.9891L88.573 59.5532L108.657 47.9316L107.754 47.4802L87.6703 58.9891Z" fill="#DBDCE0"></path><path d="M129.192 68.6925L128.967 69.031V74.1084L129.305 74.3341L130.321 73.6571L130.434 73.2058L129.192 68.6925Z" fill="#C5C7CF"></path><path d="M129.192 68.6925L129.531 68.8053L130.546 68.2412L130.321 68.0155L129.192 68.6925Z" fill="#C5C7CF"></path><path d="M129.531 73.8828V68.8054L130.546 68.2412V73.2058L129.531 73.8828Z" fill="#FDFDFE"></path><path d="M129.192 68.6925L129.531 68.8053V73.8828L129.192 73.7699V68.6925Z" fill="#9497A1"></path><path d="M129.757 70.9493V71.6263L130.546 72.0777V71.4007L129.757 70.9493Z" fill="#9497A1"></path><path d="M130.546 71.4005V72.0775L131.223 71.739V71.062L130.546 71.4005Z" fill="#A21B00"></path><path d="M130.546 71.4005L129.757 70.9492L130.321 70.6107L131.223 71.062L130.546 71.4005Z" fill="#C5C7CF"></path><path d="M135.06 69.4824V70.2722L131.223 72.5289V71.7391L135.06 69.4824Z" fill="#FDFDFE"></path><path d="M131.223 71.739V72.5288L130.434 72.1903V71.4005L131.223 71.739Z" fill="#9497A1"></path><path d="M131.223 71.739L135.06 69.4823L134.383 69.031L130.434 71.4005L131.223 71.739Z" fill="#C5C7CF"></path><path d="M106.852 81.5554L106.626 82.0067V87.0842L106.965 87.197L107.867 86.6329L107.98 86.1815L106.852 81.5554Z" fill="#C5C7CF"></path><path d="M106.852 81.5554L107.077 81.781L108.206 81.104L107.98 80.9912L106.852 81.5554Z" fill="#C5C7CF"></path><path d="M107.077 86.8584V81.781L108.206 81.104V86.1814L107.077 86.8584Z" fill="#FDFDFE"></path><path d="M106.852 81.5554L107.077 81.7811V86.8585L106.852 86.6329V81.5554Z" fill="#9497A1"></path><path d="M107.303 83.9248V84.489L108.206 85.0531V84.3761L107.303 83.9248Z" fill="#9497A1"></path><path d="M108.206 84.3761V85.0531L108.77 84.7146V84.0376L108.206 84.3761Z" fill="#A21B00"></path><path d="M108.206 84.3762L107.303 83.9248L107.98 83.4735L108.77 84.0377L108.206 84.3762Z" fill="#C5C7CF"></path><path d="M109.447 84.2634V85.0533L105.498 87.4227V86.6329L109.447 84.2634Z" fill="#FDFDFE"></path><path d="M105.498 86.6327V87.4225L104.821 86.9712V86.1814L105.498 86.6327Z" fill="#9497A1"></path><path d="M105.498 86.6328L109.447 84.2633L108.77 83.9248L104.821 86.1814L105.498 86.6328Z" fill="#C5C7CF"></path></g><defs><clipPath id="clip0_4_1231"><rect width="153" height="144" fill="white"></rect></clipPath></defs></svg>