<svg xmlns="http://www.w3.org/2000/svg" width="40" height="40" viewBox="0 0 40 40" fill="none"><rect width="40" height="40" rx="20" fill="#26D367"></rect><g clip-path="url(#clip0_5_699)"><path fill-rule="evenodd" clip-rule="evenodd" d="M16.0679 12.7433C15.773 12.0365 15.4626 12.0223 15.182 12.0099C14.9526 11.9993 14.6899 12 14.4276 12C14.1652 12 13.7386 12.1063 13.378 12.531C13.0171 12.9558 12 13.9826 12 16.0709C12 18.1595 13.4108 20.1774 13.6074 20.4608C13.8042 20.7439 16.3308 25.1663 20.332 26.8677C23.6574 28.2817 24.3341 28.0004 25.0559 27.9297C25.7777 27.8589 27.385 26.9031 27.713 25.9119C28.0411 24.9209 28.0411 24.0715 27.9427 23.8939C27.8442 23.717 27.5818 23.6109 27.1881 23.3986C26.7943 23.1863 24.859 22.1593 24.4981 22.0178C24.1372 21.8763 23.8747 21.8056 23.6123 22.2305C23.3498 22.6551 22.5959 23.6109 22.3661 23.894C22.1365 24.1776 21.9069 24.213 21.5131 24.0007C21.1194 23.7878 19.8516 23.34 18.3475 21.8941C17.1772 20.7691 16.3872 19.3797 16.1574 18.9548C15.9278 18.5302 16.1329 18.3003 16.3304 18.0886C16.5071 17.8985 16.7241 17.5932 16.9209 17.3453C17.1174 17.0975 17.183 16.9206 17.3142 16.6376C17.4454 16.3541 17.3798 16.1062 17.2814 15.894C17.183 15.6817 16.4179 13.5826 16.0679 12.7433Z" fill="white"></path></g><defs><clipPath id="clip0_5_699"><rect width="16" height="18" fill="white" transform="translate(12 10)"></rect></clipPath></defs></svg>